<svg width="265" height="253" viewBox="0 0 265 253" fill="none" xmlns="http://www.w3.org/2000/svg">
<path d="M90.5548 23.9172L171.789 23.9405L171.893 35.5939L183.686 35.7721L183.839 48.3721L196.398 48.5827L196.471 61.806L208.001 61.9101L208.074 85.7416L218.735 85.8225L218.863 98.7629L228.789 98.9613L228.783 111.393L239.694 111.341C239.871 103.085 239.773 94.4792 239.792 86.1929L264.425 86.1978L264.351 134.043L252.552 134.076C252.356 137.957 252.344 142.118 252.258 146.027L240.949 146.161L240.869 157.959L230.491 157.905C231.275 188.259 230.644 221.54 230.644 252.072L198.412 252.037L198.382 230.753C186.05 230.678 173.718 230.68 161.392 230.759L161.325 238.629L161.282 252.069L101.001 251.808L101.013 230.662L64.1828 230.713C64.0542 236.937 64.7155 244.965 64.8073 251.544L33.4574 251.532L33.4144 158.024L22.4787 157.974L22.4726 146.385L11.445 146.344L11.1878 134.66L0.172403 134.569C-0.170487 119.02 0.105053 102.494 0.0989298 86.8695L23.7217 86.8824L23.7706 111.4L33.7451 111.424L33.7879 99.0011L43.9951 98.919L44.0196 85.798L53.9512 85.7576L54.1104 61.9248L65.6768 61.8238L65.7747 48.5411L79.0005 48.4933L79.0066 35.7041L90.42 35.6894L90.5548 23.9172Z" fill="#F6EDDF"/>
<path d="M83.2192 105.311L108.961 105.329C108.991 114.513 109.12 123.931 108.826 133.088L83.1274 133.143L83.2192 105.311Z" fill="#121111"/>
<path d="M153.016 105.409C161.325 105.24 170.007 105.363 178.347 105.364C178.592 114.423 178.396 123.945 178.341 133.04C169.836 133.121 161.325 133.143 152.82 133.107C152.802 123.874 152.869 114.641 153.016 105.409Z" fill="#121111"/>
<path d="M121.139 151.387C127.569 151.248 134.414 151.339 140.88 151.327L140.843 161.755L151.044 161.778L150.977 181.38L140.715 181.518L140.66 171.531L130.893 171.492L130.875 162.013L120.962 161.907L121.139 151.387Z" fill="#121111"/>
<path d="M220.271 0.00980084L252.001 0L251.977 9.71177L260.188 9.7626L260.163 25.1492L250.415 25.1767L250.317 34.7587C246.386 34.8848 242.174 33.8623 238.714 35.5339C237.324 37.6763 237.814 37.7112 237.728 40.744L237.52 42.5209C234.967 44.2041 230.417 43.6083 227.129 43.5061C227.068 37.3787 227.135 31.129 227.148 24.9912C231.538 25.0574 238.843 25.396 242.951 24.7445C245.26 22.4526 245.682 13.9471 243.343 11.3919C238.83 10.4153 225.709 10.9143 220.296 10.9817L220.271 0.00980084Z" fill="#F6EDDF"/>
<path d="M227.117 49.7504L237.6 49.7981L237.759 61.0113C234.269 61.0419 230.632 60.9555 227.129 60.9249L227.117 49.7504Z" fill="#F6EDDF"/>
</svg>
