<svg width="270" height="229" viewBox="0 0 270 229" fill="none" xmlns="http://www.w3.org/2000/svg">
<path d="M94.2631 0L175.392 0.0495928L175.525 11.6944L187.513 11.8989L187.583 24.4303L199.91 24.5944L200.036 37.9274L211.491 38.0113L211.569 61.825L222.333 61.9058L222.317 74.9234L232.878 75.0128L232.905 87.4402L245.243 87.4181L245.306 62.31L269.829 62.3228C269.93 78.2464 269.927 94.17 269.818 110.093L256.894 110.149L256.793 122.285L244.943 122.345L244.916 134.452L232.837 134.428C232.468 165.46 232.795 197.159 232.792 228.244C222.211 228.275 211.577 228.055 200.98 228.016L201.039 207.088L162.65 206.946L162.541 215.632L162.492 228.541C143.644 228.868 123.562 228.459 104.612 228.463L104.571 206.763C92.0343 206.626 79.3363 206.747 66.7865 206.763C66.6751 213.102 67.3284 221.114 67.4074 227.787L36.1756 227.735L36.2031 134.534C32.4368 134.53 28.3822 134.338 24.5969 134.224V122.442L12.7849 122.389L12.698 110.204L0 110.151C0.233288 94.2153 0.0544909 77.8558 0.058777 61.8869C8.05609 61.7632 16.4661 61.945 24.4946 62.0044L24.5253 87.4879L36.2546 87.5069L36.3225 75.0539L47.1903 75.0067L47.1413 61.8465L57.2058 61.8238C57.3289 53.8797 57.4054 45.9351 57.4354 37.9905L68.7367 37.9421L68.752 24.554L81.859 24.4701L81.9331 11.7354L93.9845 11.7391C94.1565 7.92996 94.1749 3.83731 94.2631 0Z" fill="#F6EDDF"/>
<path d="M85.8341 81.4151L111.937 81.4175C112.03 90.6866 111.952 99.9569 111.702 109.223C103.727 109.675 93.8791 109.422 85.7514 109.402C85.6479 100.073 85.6755 90.7435 85.8341 81.4151Z" fill="#121111"/>
<path d="M156.621 81.5026C165.163 81.344 174 81.4506 182.565 81.4432C182.612 90.7405 182.587 100.038 182.493 109.334C173.95 109.512 165.112 109.383 156.544 109.358C156.488 100.073 156.514 90.7876 156.621 81.5026Z" fill="#121111"/>
<path d="M113.368 127.428C127.329 127.273 141.532 127.397 155.514 127.406L155.532 137.767L146.458 137.791L146.487 146.979L121.981 147.055L121.992 137.878L113.293 137.816C113.263 134.395 113.336 130.86 113.368 127.428Z" fill="#121111"/>
</svg>
