<svg width="219" height="224" viewBox="0 0 219 224" fill="none" xmlns="http://www.w3.org/2000/svg">
<path d="M67.4974 0.0234292C71.3659 -0.0188198 75.2351 -0.00778724 79.1036 0.0883446C101.756 0.651053 124.412 -0.123533 147.061 0.24385L147.091 12.2212L158.836 12.3198L158.915 24.3938L172.269 24.4575L172.355 37.8247L184.583 37.9275V51.8654L194.282 51.9199C194.141 60.9704 194.772 70.8059 194.79 80.1221L207.165 80.1655C207.085 94.3777 207.434 108.655 207.275 122.873C207.189 130.606 206.007 137.715 206.118 145.454L218.633 145.381L218.609 223.248C206.748 223.376 194.527 223.162 182.63 223.168L182.636 203.219L147.741 203.207L147.716 221.135L147.581 222.464C147.306 222.697 147.03 222.923 146.755 223.156C123.701 223.144 88.9875 223.327 67.0523 223.174L67.0394 203.225L32.1013 203.262L32.0382 223.266C21.5341 223.395 10.5684 223.039 0 222.948L0.0214142 145.265L9.9732 145.136C10.0461 142.117 10.452 137.28 9.60583 134.586C8.31693 134.102 8.70268 134.304 7.52338 133.472C7.09232 129.002 7.35805 118.935 7.35009 114.111L7.30049 77.4549L19.11 77.4886C19.1412 69.2874 19.8613 60.453 19.9379 51.8385L28.4281 51.6548L28.3491 37.7371L41.6183 37.7696L41.6453 24.3717L55.2121 24.3742L55.2182 12.1924L67.4227 12.1691L67.4974 0.0234292Z" fill="#F6EDDF"/>
<path d="M76.8693 123.295C92.9821 123.179 109.52 125.444 125.82 123.779C128.832 123.473 132.537 123.43 135.549 123.564L135.611 134.5L145.254 134.561L145.169 155.227L155.125 155.319C155.106 164.687 154.966 174.337 155.113 183.687L145.169 183.699C145.157 188.922 145.206 194.237 145.132 199.453L131.129 199.496C131.202 203.238 131.337 206.293 130.902 210.01L82.8802 209.985L82.8037 199.478L66.7968 199.496C66.6248 194.39 66.7344 188.763 66.7301 183.613L56.403 183.644L56.4973 155.337L66.8011 155.331L66.8318 134.525L76.7492 134.555L76.8693 123.295Z" fill="#ECAC68"/>
<path d="M76.8692 123.295C92.982 123.179 109.52 125.444 125.82 123.779C128.832 123.473 132.537 123.43 135.549 123.564L135.611 134.5L145.254 134.561L145.169 155.227L155.125 155.319C155.106 164.687 154.966 174.337 155.113 183.687L145.169 183.699C144.954 174.398 145.083 164.601 145.052 155.263L135.36 155.11L135.182 144.891L126.481 144.781L126.512 135.155C113.219 134.904 99.2275 135.1 85.8468 135.039L85.8682 144.597L76.2005 144.609L76.0426 155.202L66.801 155.331L66.8317 134.525L76.7491 134.555L76.8692 123.295Z" fill="#121111"/>
<path d="M82.8037 199.478L130.804 199.484C130.78 202.656 130.596 206.942 130.902 210.01L82.8802 209.985L82.8037 199.478Z" fill="#121111"/>
<path d="M56.4973 155.337L66.8011 155.331C66.7552 163.236 66.2617 176.112 66.7301 183.613L56.403 183.644L56.4973 155.337Z" fill="#121111"/>
<path d="M66.7301 183.613C69.3991 183.527 72.8629 183.087 75.1431 184.189C75.3825 185.401 75.4799 186.277 75.6121 187.507C78.8041 191.432 78.7263 189.62 82.5196 190.783C83.1766 193.661 82.8961 196.502 82.8037 199.478L66.7968 199.496C66.6248 194.39 66.7344 188.763 66.7301 183.613Z" fill="#121111"/>
<path d="M131.129 199.496C130.963 197.108 130.375 192.902 131.22 190.887C135.084 189.289 136.039 188.267 136.156 184.213C137.907 183.025 142.738 183.607 145.169 183.699C145.156 188.922 145.205 194.237 145.132 199.453L131.129 199.496Z" fill="#121111"/>
<path d="M76.7523 165.96L86.9447 166.003L86.4543 176.29L76.7633 176.278L76.7523 165.96Z" fill="#2E1E18"/>
<path d="M114.798 144.518L124.118 144.573C124.081 148.357 124.044 151.363 123.695 155.141L114.86 155.306L114.798 144.518Z" fill="#2E1E18"/>
<path d="M125.777 166.175C128.753 166.358 132.488 166.328 135.531 166.383L135.543 176.137L125.802 176.241L125.777 166.175Z" fill="#2E1E18"/>
<path d="M89.9402 144.548L99.3378 144.628L99.2705 155.061H90.746L89.9402 144.548Z" fill="#2E1E18"/>
<path d="M114.609 179.345L123.879 179.333L123.842 189.314H114.609V179.345Z" fill="#2E1E18"/>
<path d="M89.612 179.48L98.1867 179.474L98.1438 189.283L89.3027 189.259L89.612 179.48Z" fill="#2E1E18"/>
<path d="M107.157 166.45L114.682 166.524L114.535 176.749L106.918 176.915L107.157 166.45Z" fill="#2E1E18"/>
<path d="M128.251 81.8855L154.849 81.8585C154.929 90.8135 154.929 99.7684 154.849 108.722L128.177 108.747L128.251 81.8855Z" fill="#121111"/>
<path d="M58.7916 81.8769L85.1231 81.9008C85.1636 90.8361 85.1562 99.7715 85.1023 108.704C76.7548 108.992 67.1587 108.71 58.7218 108.649L58.7916 81.8769Z" fill="#121111"/>
<path d="M30.0666 183.65L56.403 183.644L56.3987 194.469L30.0623 194.463L30.0666 183.65Z" fill="#121111"/>
<path d="M30.3966 144.64L56.3436 144.56L56.4973 155.337L30.4003 155.367C30.377 152.116 30.2337 147.793 30.3966 144.64Z" fill="#121111"/>
<path d="M155.168 144.573C163.519 144.573 172.177 144.456 180.511 144.622C180.529 148.167 180.597 151.835 180.56 155.368C172.373 155.368 163.226 155.57 155.125 155.319L155.168 144.573Z" fill="#121111"/>
<path d="M155.113 183.687C163.471 183.674 172.104 183.558 180.438 183.73L180.499 194.457C172.055 194.482 163.611 194.445 155.162 194.335L155.113 183.687Z" fill="#121111"/>
</svg>
