<svg width="270" height="225" viewBox="0 0 270 225" fill="none" xmlns="http://www.w3.org/2000/svg">
<path d="M93.9502 0L174.507 0.0220495L174.527 11.275L186.783 11.2444L186.775 23.0006L199.83 23.128L199.798 36.1866L211.437 36.2007L211.56 58.2602L222.335 58.2247L222.345 71.7976L232.812 71.9097L232.801 84.0517L245.401 83.9941C245.327 75.2896 245.431 66.4589 245.457 57.7434L269.811 57.7556C269.941 74.313 269.905 90.8715 269.704 107.431L256.794 107.394L256.763 119.475L244.99 119.524L244.891 131.702L232.875 131.715C232.461 162.367 232.833 193.913 232.828 224.632L200.991 224.687L201.059 204.481L163.536 204.512L163.497 211.173L163.422 224.546C144.016 224.828 124.146 224.632 104.703 224.663L104.738 204.481L67.716 204.573L67.5593 224.687C57.2927 224.712 46.6882 224.314 36.2925 224.283L36.2993 131.733L24.5767 131.69L24.5675 119.487L12.7568 119.426L12.7127 107.529L0 107.516L0.0906274 57.7624L24.4879 57.782L24.4732 84.0253L36.505 84.0688L36.5209 71.8576L47.3146 71.824L47.3116 58.3085L57.6822 58.3777C57.7758 51.0693 57.673 43.5447 57.6601 36.2184L68.7508 36.1737L68.7588 23.0649C73.0816 22.9504 77.6892 23.0159 82.0372 23.0018L82.036 11.1917L93.8069 11.1733L93.9502 0Z" fill="#F6EDDF"/>
<path d="M114.707 122.64L154.768 122.646C154.949 129.161 154.669 136.503 154.562 143.079L144.64 143.183L144.589 153.415L124.72 153.525L124.576 143.079L114.68 143.275L114.707 122.64Z" fill="#121111"/>
<path d="M85.9755 82.066L112.352 82.0519C112.433 90.8807 112.388 99.7107 112.216 108.539L85.8641 108.637C85.8151 99.7811 85.8519 90.923 85.9755 82.066Z" fill="#121111"/>
<path d="M156.642 82.0366L182.748 82.0458C182.804 89.6916 183.201 101.463 182.566 108.741C173.965 108.563 165.186 108.594 156.569 108.539C156.43 99.8148 156.593 90.7839 156.642 82.0366Z" fill="#121111"/>
<path d="M182.612 111.527L202.782 111.545L202.743 132.756C196.097 132.658 189.236 132.792 182.572 132.841L182.612 111.527Z" fill="#F69B86"/>
<path d="M66.4259 111.582L86.3534 111.478C86.395 118.452 86.2707 125.586 86.2211 132.572L66.4535 132.86L66.4259 111.582Z" fill="#F69B86"/>
</svg>
