<svg width="240" height="223" viewBox="0 0 240 223" fill="none" xmlns="http://www.w3.org/2000/svg">
<path d="M81.0269 0.00264435C98.9797 -0.0708322 116.663 1.41709 134.584 0.712939C142.432 0.406786 150.171 0.327172 158.02 0.468002L158.04 12.1814L170.084 12.3345L170.114 25.1255L183.114 25.1867L183.134 38.9759L195.482 38.9697L195.597 53.2425L205.166 53.3834C204.934 62.5618 206.278 70.2156 206.317 79.3022L218.516 79.3451C218.653 105.637 218.048 132.958 218.07 159.484L229.566 159.471L229.555 171.16L239.258 171.172C239.117 181.067 239.954 190.491 239.606 200.453C229.428 200.563 220.445 200.03 210.327 199.779C209.986 206.919 210.147 215.509 210.115 222.765L179.318 222.777L179.267 205.229C168.814 205.321 158.018 204.904 147.497 204.812L147.566 213.44C148.131 216.422 148.111 219.71 148.213 222.765C128.849 222.851 109.484 222.833 90.1202 222.698L90.0688 205.394C79.3235 205.419 69.0202 205.051 58.2963 204.806C58.1555 210.654 58.3226 217.101 58.3514 223.004C48.7211 223.053 38.4766 222.643 28.7893 222.465C29.1953 215.136 29.3692 207.801 29.3116 200.465C19.6531 200.6 9.68972 200.441 0.00796026 200.404L0 171.142L10.7864 171.081L10.8892 159.459L21.4631 159.502L20.5918 79.2349L31.4614 79.0879C31.4639 70.5034 32.4375 62.421 32.3413 53.2486L41.9367 53.2854L41.998 38.8289L54.353 38.835L54.5178 25.2051L67.34 25.0582L67.4117 12.0222L79.5304 12.0406C79.4949 8.33613 79.283 4.33166 79.8672 0.712939L81.0269 0.00264435Z" fill="#F6EDDF"/>
<path d="M110.689 130.087C116.994 129.921 123.531 130.032 129.854 130.05L129.929 138.414L138.527 138.567L138.501 155.797H128.059L127.997 144.157L127.318 143.11C123.367 142.565 117.007 142.817 112.812 142.859L112.717 155.81L102.063 155.791L102.129 138.659L110.493 138.592L110.689 130.087Z" fill="#121111"/>
<path d="M68.092 83.1107L80.2517 83.1719L80.3276 93.5505L91.8139 93.6546L91.7545 111.093L80.3503 111.148C80.3503 114.675 80.5089 118.459 79.9388 121.912L68.0901 121.955V110.781H80.0913L80.0154 94.1078L68.0442 94.0343L68.092 83.1107Z" fill="#121111"/>
<path d="M156.852 83.1168L169.515 83.2393L169.507 94.0771L157.04 94.0526C157.1 98.1856 155.991 107.125 158.065 110.236C158.523 110.928 160.657 110.854 161.763 110.958L169.486 111.081V121.845L156.922 121.851C156.89 119.359 156.722 117.026 157.211 114.595C157.003 113.089 157.089 113.04 156.377 111.736C153.496 110.45 149.236 110.971 145.913 111.062C145.732 105.35 145.868 99.4776 145.928 93.7464L156.814 93.8076L156.852 83.1168Z" fill="#121111"/>
</svg>
