<svg width="264" height="229" viewBox="0 0 264 229" fill="none" xmlns="http://www.w3.org/2000/svg">
<path d="M91.3387 0L173.277 0.0214329L173.295 11.6656L184.935 11.9363L185.015 24.4548L197.622 24.521L197.751 37.9127L209.28 37.9653L209.268 61.8207L219.702 61.8556L219.726 75.063L229.456 75.2088L229.425 87.5045L239.993 87.5075L240.03 62.9559L263.365 62.9627L263.353 110.752L252.46 110.746L252.35 122.471L241.677 122.403L241.971 134.499L232.052 134.593C231.495 165.53 232.003 197.888 232.027 228.91C221.288 228.914 210.591 228.523 199.839 228.537L199.82 207.844C187.103 207.626 174.373 207.654 161.655 207.93L161.625 219.918L161.557 228.851C142.135 229.041 122.345 228.819 102.898 228.744L102.845 207.904C91.8059 207.321 77.6556 207.737 66.4712 207.864L66.443 228.765C56.0669 228.759 45.2603 228.127 34.5615 228.106L34.4134 134.621L22.2603 134.457L22.1875 122.793L11.0025 122.612L10.9168 110.776L0.0183871 110.741L0 62.9015L23.8921 62.9321C23.8676 71.1216 23.8897 79.3112 23.9601 87.5008L34.3478 87.5198L34.3821 75.12L44.6707 75.1016L44.6327 61.8863L54.4602 61.8936L54.4872 37.9929L66.3616 37.9121L66.6543 24.663L79.4802 24.5314L79.6443 11.8812L91.2463 11.7403L91.3387 0Z" fill="#F6EDDF"/>
<path d="M152.66 81.4708L179.228 81.48C179.332 90.7889 179.308 100.098 179.155 109.406C170.466 109.571 161.3 109.412 152.575 109.402C152.495 100.092 152.526 90.7803 152.66 81.4708Z" fill="#121111"/>
<path d="M84.0052 81.5008L110.292 81.5332L110.182 109.359C101.433 109.425 92.6821 109.423 83.9317 109.354C83.8631 100.07 83.8876 90.7852 84.0052 81.5008Z" fill="#121111"/>
<path d="M121.898 128.124C128.285 128.09 134.597 128.015 140.984 128.267L141.1 138.813C143.598 138.787 148.925 138.451 150.977 139.4L150.989 149.92L140.77 149.934L140.867 138.95L121.959 138.939C121.91 135.334 121.892 131.729 121.898 128.124Z" fill="#121111"/>
<path d="M112.248 138.912L121.959 138.939C122.149 142.269 122.076 146.531 122.113 149.938L112.25 149.875L112.248 138.912Z" fill="#121111"/>
</svg>
