<svg width="249" height="239" viewBox="0 0 249 239" fill="none" xmlns="http://www.w3.org/2000/svg">
<path d="M77.8429 20.4726C102.742 19.9216 130.553 20.1359 155.511 20.4604L155.505 32.6943L167.022 32.9086L167.187 44.72L180.634 44.9097L180.732 58.2519L192.445 58.405L192.69 72.5676L203.179 72.69C203.087 80.6683 203.907 88.6895 203.822 97.0965L215.131 97.2251C215.345 123.309 214.733 149.718 215.259 175.741L225.295 175.949L225.264 187.607L233.935 187.626L233.971 216.024C224.707 215.975 215.443 215.822 206.179 215.571L206.032 238.263C196.07 238.374 185.863 238.233 175.876 238.202L175.949 219.478C165.914 219.294 155.878 219.257 145.849 219.368L145.775 227.811L145.818 238.239L88.0752 238.196L87.9747 220.427L57.6852 220.402L57.6675 238.227L27.6529 238.012C27.5991 231.154 28.1636 223.005 28.2603 215.884C18.84 215.92 9.41969 215.902 0 215.835L0.0159205 187.877C3.49871 187.981 6.64779 188.679 9.09518 186.573C9.73503 184.558 8.59067 179.862 8.5374 176.378L8.52944 175.471L18.1506 175.306L18.2669 97.0352L29.3312 96.9311C29.128 88.7018 30.4248 80.9745 30.5504 72.5431L39.7772 72.4635L39.7649 58.4478L52.4537 58.3988L52.589 44.7689L65.993 44.72L66.1167 32.7616L77.7248 32.5902C77.7217 28.549 77.7609 24.5139 77.8429 20.4726Z" fill="#F6EDDF"/>
<path d="M109.018 156.104L124.755 156.147L124.877 165.277L132.733 165.326C132.751 169.587 132.641 174.002 132.592 178.282L124.816 178.6L124.749 187.393L108.865 187.467L108.914 178.441L101.1 178.239L101.062 165.405L108.976 165.387L109.018 156.104Z" fill="#121111"/>
<path d="M88.7224 120.67L99.7568 120.664L99.5871 131.269L88.8571 131.379L88.889 141.629C82.4818 141.666 76.074 141.654 69.6669 141.605L69.793 131.3L60.0929 131.422L60.1774 120.67L70.4929 120.695L70.4635 130.969L88.6496 131L88.7224 120.67Z" fill="#121111"/>
<path d="M134.643 120.768L145.279 120.713L145.267 130.945L163.367 130.951L163.373 120.756L173.941 120.762C173.966 124.497 174.039 127.73 173.659 131.453L164.181 131.422L164.144 141.593C157.795 141.838 151.439 141.85 145.083 141.629L145.028 131.306L134.466 131.318L134.643 120.768Z" fill="#121111"/>
<path d="M196.56 0.11355C208.836 -0.119126 221.652 0.0768566 233.965 0.0829797L233.861 10.3146L225.387 10.3513L225.338 20.3686L216.307 20.3564C216.307 22.181 216.282 24.0118 216.227 25.8426C214.892 28.5367 214.059 28.3408 211.653 29.939C210.875 31.7759 211.224 32.8474 211.475 34.8313C214.249 38.4194 218.388 32.6943 224.53 36.5212C225.828 38.9643 225.32 39.1786 225.277 42.3871L224.971 44.3343C222.27 45.8834 200.907 44.9833 196.376 44.8731C196.137 38.0704 197.65 35.7068 200.295 29.5103C202.517 28.0898 202.744 28.0653 205.383 27.9122C206.418 26.063 206.191 22.4872 206.234 20.1972L214.77 20.0564L214.721 10.3758L196.505 10.2839L196.56 0.11355Z" fill="#F6EDDF"/>
<path d="M227.395 49.894L248.704 49.7776C248.704 52.135 249.132 55.7415 247.773 57.3886L245.373 57.3151C240.866 59.5806 244.895 62.9544 242.134 66.616C240.199 66.7078 240.144 66.5609 238.472 67.4365C237.1 69.4877 237.511 72.2125 237.541 74.7903L248.716 74.7596C248.802 77.7048 248.955 79.3213 248.44 82.2604L247.479 82.8543L225.51 82.7747C225.448 80.5704 225.05 76.4925 225.895 74.6862C227.965 74.5209 227.818 74.5576 229.581 73.4554C231.706 70.0878 228.62 68.1407 231.914 65.2322C233.555 65.2383 233.592 65.3485 235.074 64.7178C236.145 62.7095 235.796 60.0582 235.759 57.6947L225.65 57.7988C225.546 55.4476 225.124 52.3371 226.018 50.292L227.395 49.894Z" fill="#F6EDDF"/>
</svg>
