<svg width="238" height="220" viewBox="0 0 238 220" fill="none" xmlns="http://www.w3.org/2000/svg">
<path d="M77.9403 0L158.024 0.00612903V12.2277L169.627 12.3257L169.584 24.7922L182.595 24.7739L182.589 37.9874L195.154 38.2078L195.276 52.2786L206.071 52.1439L206.359 77.8668L217.95 78.0872L217.999 156.866L227.814 157.123L227.857 168.353L237.678 168.396L237.66 196.991C228.267 197.003 218.881 196.807 209.5 196.409L209.396 219.297L178.775 219.211L178.689 200.169C172.78 200.138 153.254 199.654 148.257 200.481C147.4 202.171 147.627 204.583 147.627 206.579L147.633 219.309L88.3862 219.285L88.3495 200.15L58.0588 200.132C57.8751 206.236 58.0465 213.082 58.071 219.236L28.3191 219.021L28.2885 196.476C18.9019 196.85 9.51527 196.954 0.128635 196.776L0 168.408L9.98672 168.451L9.94382 157.142L18.0018 156.989L17.9099 77.8239L29.4947 77.7504L29.6478 52.052L40.2468 52.0031L40.3632 38.3119L52.7501 38.1589L52.799 24.8412L66.2881 24.8657L66.3188 12.3686L77.8423 12.1971L77.9403 0Z" fill="#F6EDDF"/>
<path d="M162.034 82.1101L175.272 82.2877C175.333 86.0717 176.105 103.308 174.513 105.372L164.985 105.39L164.869 115.046L150.131 115.083L150.1 105.408L139.067 105.261C139.036 97.5708 139.073 89.8741 139.189 82.1836L152.574 82.2265L152.592 90.4865L161.801 90.5293L162.034 82.1101Z" fill="#121111"/>
<path d="M83.0653 82.0734L96.5053 82.1346C96.6217 88.1352 96.9707 99.6894 96.1869 105.353L85.4288 105.421L85.3737 115.089L71.26 115.07L71.2294 105.445L60.9427 105.243C60.8753 97.5647 60.906 89.8925 61.0284 82.2142C65.1615 82.1713 69.4905 82.2754 73.6358 82.3122L73.8317 90.413L82.9306 90.468L83.0653 82.0734Z" fill="#121111"/>
<path d="M97.4298 128.498L107.759 128.517L107.796 138.987L128.265 139.005C128.217 135.577 128.296 131.97 128.321 128.517L138.73 128.535C138.828 132.001 138.718 135.975 138.687 139.483C136.287 139.679 131.615 139.599 129.055 139.63L128.982 149.678C121.787 149.77 114.587 149.782 107.386 149.702V139.526L97.4237 139.544L97.4298 128.498Z" fill="#121111"/>
</svg>
