<svg width="238" height="224" viewBox="0 0 238 224" fill="none" xmlns="http://www.w3.org/2000/svg">
<path d="M77.9464 0.17257C104.318 -0.189914 131.541 0.132774 157.981 0.122978L158.018 12.3452H169.615L169.547 24.6072L182.516 24.6225L182.528 37.9916L194.303 38.1208L194.603 52.1083L204.498 52.1664C204.283 60.855 205.851 69.0875 205.734 78.3755L217.374 78.4912C217.399 106.298 217.827 135.223 217.013 162.942L227.22 162.979L227.318 174.062L237.152 174.074L237.274 201.775L206.463 201.689L206.365 223.315L173.882 223.266L173.907 203.342L146.065 203.336L145.851 210.604L145.771 223.211C128.174 223.738 108.88 223.352 91.1599 223.34L91.1844 203.409C81.8345 203.348 72.4908 203.342 63.1409 203.385L62.9633 223.181C51.9051 223.462 40.4673 223.321 29.3784 223.321L29.3906 201.628L0 201.67L0.0551612 174.062L9.82752 174.013L9.86429 163.016L19.6489 162.985C19.5877 156.819 18.8652 150.335 18.8897 144.285C18.9754 122.181 18.2467 99.9654 18.3386 77.8949L30.3336 77.8245C30.4867 69.0924 31.3868 61.3149 31.3623 52.1805L40.7122 52.1518C40.902 47.6244 40.8347 42.5741 40.8653 38.0044L53.3073 37.9928L53.3257 24.598L66.2698 24.5864L66.3188 12.3054L77.8362 12.2613L77.9464 0.17257Z" fill="#F6EDDF"/>
<path d="M108.421 124.465L127.684 124.416L127.641 127.477C127.445 135.707 131.646 131.531 133.936 133.882C134.456 139.05 134.383 147.347 133.954 152.649C133.838 154.113 132.754 154.425 131.627 155.086C129.613 154.872 130.268 154.762 128.394 155.203C127.347 157.542 127.635 160.444 127.629 163.114C121.31 163.187 114.728 163.089 108.396 163.071C108.47 160.377 108.684 158.57 108.004 155.919C106.425 154.205 107 154.743 104.184 154.254C100.987 151.247 100.877 136.852 103.651 133.594C105.684 132.933 105.782 132.97 107.637 131.733C108.843 129.792 108.451 126.877 108.421 124.465Z" fill="#121111"/>
<path d="M70.4396 82.0408L96.2789 82.0916L96.2543 108.857L70.3967 108.9L70.4396 82.0408Z" fill="#121111"/>
<path d="M140.285 82.0806C148.815 81.9263 157.638 82.0249 166.186 82.0071L166.082 108.833L140.199 108.955L140.285 82.0806Z" fill="#121111"/>
</svg>
